<?xml version="1.0" standalone="no"?>
<!DOCTYPE svg PUBLIC "-//W3C//DTD SVG 20010904//EN"
 "http://www.w3.org/TR/2001/REC-SVG-20010904/DTD/svg10.dtd">
<svg version="1.0" xmlns="http://www.w3.org/2000/svg"
 width="250.000000pt" height="61.000000pt" viewBox="0 0 250.000000 61.000000"
 preserveAspectRatio="xMidYMid meet">

<g transform="translate(0.000000,61.000000) scale(0.100000,-0.100000)"
fill="#000000" stroke="none">
<path d="M0 305 l0 -305 1250 0 1250 0 0 305 0 305 -1250 0 -1250 0 0 -305z
m2475 0 l0 -280 -1225 0 -1225 0 -3 270 c-1 148 0 275 3 282 3 11 247 13 1227
11 l1223 -3 0 -280z"/>
<path d="M70 305 l0 -235 1180 0 1180 0 0 235 0 235 -1180 0 -1180 0 0 -235z
m200 147 c15 -12 24 -33 27 -65 l6 -47 -37 0 c-35 0 -36 1 -36 36 0 24 -4 34
-12 32 -18 -6 -18 -200 0 -205 8 -3 12 8 12 36 0 40 0 41 36 41 l37 0 -5 -52
c-4 -38 -12 -57 -28 -70 -32 -26 -76 -23 -105 7 -24 23 -25 30 -25 138 0 100
3 117 21 141 25 31 75 35 109 8z m110 -117 l0 -135 35 0 c32 0 35 -2 35 -30
l0 -30 -65 0 -65 0 0 165 0 165 30 0 30 0 0 -135z m148 -3 c2 -100 6 -132 15
-129 8 2 13 43 15 135 l3 132 30 0 30 0 -3 -146 c-3 -139 -4 -147 -27 -165
-30 -24 -72 -24 -102 0 -23 18 -24 27 -27 151 -2 72 -1 138 2 146 4 10 16 14
33 12 l28 -3 3 -133z m228 132 c39 -10 57 -82 30 -119 -12 -17 -12 -22 0 -39
8 -11 14 -42 14 -69 0 -38 -5 -53 -25 -73 -22 -21 -33 -25 -78 -22 l-52 3 -3
150 c-1 82 0 155 2 162 6 13 73 18 112 7z m290 -19 c25 -25 26 -29 22 -146 -3
-113 -5 -122 -27 -140 -16 -13 -39 -19 -77 -19 l-54 0 0 165 0 165 55 0 c46 0
60 -4 81 -25z m174 -10 c0 -32 -2 -35 -30 -35 -27 0 -30 -3 -30 -30 0 -27 3
-30 30 -30 27 0 30 -3 30 -30 0 -27 -3 -30 -30 -30 -28 0 -30 -3 -30 -34 0
-32 3 -35 33 -38 28 -3 32 -6 32 -33 l0 -30 -65 0 -65 0 -3 150 c-1 82 0 155
2 162 4 9 26 13 66 13 l60 0 0 -35z m90 -100 l0 -135 35 0 c32 0 35 -2 35 -30
l0 -30 -65 0 -65 0 0 165 0 165 30 0 30 0 0 -135z m305 110 c19 -18 25 -35 25
-65 0 -41 -1 -41 -32 -38 -29 3 -33 7 -36 36 -3 34 -16 42 -26 16 -8 -20 -8
-158 0 -178 11 -28 23 -17 26 22 3 34 6 37 36 40 32 3 32 3 32 -43 0 -85 -80
-126 -136 -70 -25 25 -26 29 -22 146 3 113 5 122 27 140 32 26 77 24 106 -6z
m176 6 c22 -17 24 -29 28 -111 4 -109 -4 -155 -30 -181 -27 -27 -74 -24 -104
6 -24 23 -25 30 -25 141 0 107 2 120 22 141 27 29 77 30 109 4z m150 7 c0 -7
6 -49 13 -93 l13 -80 8 50 c22 144 15 130 68 133 l47 3 0 -166 0 -166 -27 3
c-28 3 -28 4 -33 93 l-5 90 -12 -83 c-15 -98 -17 -102 -48 -102 -19 0 -25 6
-30 33 -3 17 -12 64 -19 102 l-14 70 -1 -103 -1 -103 -27 3 -28 3 -3 150 c-1
82 0 155 2 162 7 17 96 18 97 1z m239 -153 l0 -165 -30 0 -30 0 0 165 0 165
30 0 30 0 0 -165z m154 144 c21 -17 26 -29 26 -65 0 -42 -1 -44 -29 -44 -26 0
-30 4 -33 32 -2 17 -9 33 -15 36 -10 3 -13 -22 -13 -103 0 -81 3 -106 13 -103
6 3 13 21 15 41 3 34 6 37 33 37 28 0 29 -1 29 -50 0 -38 -5 -54 -22 -70 -28
-25 -78 -26 -109 -1 -22 17 -24 29 -28 111 -1 50 0 107 4 126 13 70 75 96 129
53z"/>
<path d="M710 385 c0 -19 5 -35 10 -35 6 0 10 16 10 35 0 19 -4 35 -10 35 -5
0 -10 -16 -10 -35z"/>
<path d="M710 245 c0 -33 4 -45 13 -42 16 5 16 79 0 85 -9 2 -13 -10 -13 -43z"/>
<path d="M974 397 c-10 -28 1 -190 14 -195 9 -3 12 22 12 102 0 66 -4 106 -10
106 -6 0 -13 -6 -16 -13z"/>
<path d="M1724 397 c-10 -28 1 -190 14 -195 9 -3 12 22 12 102 0 66 -4 106
-10 106 -6 0 -13 -6 -16 -13z"/>
</g>
</svg>
